<svg width="87" height="97" viewBox="0 0 87 97" fill="none" xmlns="http://www.w3.org/2000/svg">
<g filter="url(#filter0_dd_375_1324)">
<circle cx="43.5" cy="49.5" r="37.5" fill="url(#paint0_linear_375_1324)" shape-rendering="crispEdges"/>
</g>
<path d="M36.0898 37.4023V39.6256C36.9818 40.2426 37.5548 41.4031 37.5548 42.676C37.5548 43.4793 37.3262 44.2375 36.9338 44.843C37.1369 44.9221 37.3502 45.01 37.5286 45.0875L44.6976 43.7526L45.0444 46.966L38.4966 48.3264C38.4461 49.2792 38.3531 50.2168 38.1867 51.3479H57.887V37.4023H36.0898ZM34.6251 40.2148C33.6528 40.2148 32.75 41.2547 32.75 42.676C32.75 44.0973 33.6528 45.1371 34.6251 45.1371C35.5975 45.1371 36.5002 44.0973 36.5002 42.676C36.5002 41.2547 35.5975 40.2148 34.6251 40.2148ZM43.7714 44.9978L37.4086 46.1826C36.5742 45.8543 37.1182 46.0047 36.1506 45.6835C35.7126 46.004 35.1938 46.1916 34.6251 46.1916C34.1212 46.1916 33.6566 46.0438 33.2524 45.7873C32.7491 45.9962 32.2179 46.2614 31.7444 46.5288C30.9832 46.9587 30.3545 47.3029 30.1133 47.4682V55.0979H31.2854V48.5939H32.3398V64.0041H34.0979V54.1017H35.1523V64.0041H36.676V53.9354L36.685 53.8871C37.2425 50.9199 37.4226 49.3529 37.4738 47.462L43.8933 46.128L43.7714 44.9978ZM38.0202 52.4026C37.9644 52.7355 37.9036 53.0846 37.8359 53.457H57.0079V52.4026H38.0202ZM41.1876 55.2148C40.2153 55.2148 39.3125 56.2547 39.3125 57.676C39.3125 58.7423 39.8205 59.5938 40.485 59.9527C40.6958 59.8553 40.9234 59.7941 41.1693 59.7856C41.4408 59.7762 41.6955 59.8306 41.9341 59.9274C42.5768 59.5552 43.0627 58.7186 43.0627 57.676C43.0627 56.2547 42.16 55.2148 41.1876 55.2148ZM47.7501 55.2148C46.7778 55.2148 45.875 56.2547 45.875 57.676C45.875 58.7423 46.383 59.5938 47.0475 59.9527C47.2583 59.8553 47.4859 59.7941 47.7318 59.7856C48.0033 59.7762 48.258 59.8306 48.4966 59.9274C49.1393 59.5552 49.6252 58.7186 49.6252 57.676C49.6252 56.2547 48.7225 55.2148 47.7501 55.2148ZM54.3126 55.2148C53.3403 55.2148 52.4375 56.2547 52.4375 57.676C52.4375 58.7423 52.9455 59.5938 53.61 59.9527C53.8208 59.8553 54.0484 59.7941 54.2943 59.7856C54.5658 59.7762 54.8205 59.8306 55.0591 59.9274C55.7018 59.5552 56.1877 58.7186 56.1877 57.676C56.1877 56.2547 55.285 55.2148 54.3126 55.2148ZM41.2059 60.8396C40.9807 60.8474 40.684 61.0113 40.368 61.3544C40.052 61.6974 39.7413 62.1893 39.4818 62.688C39.2342 63.1637 39.0359 63.6348 38.8923 64.0041H43.8927C43.7145 63.627 43.4744 63.1517 43.1817 62.6734C42.8713 62.1661 42.5073 61.6692 42.1465 61.3283C41.7857 60.9873 41.4551 60.831 41.2059 60.8396ZM47.7684 60.8396C47.5432 60.8474 47.2465 61.0113 46.9305 61.3544C46.6145 61.6974 46.3038 62.1893 46.0443 62.688C45.7967 63.1637 45.5984 63.6348 45.4548 64.0041H50.4552C50.277 63.627 50.0369 63.1517 49.7442 62.6734C49.4338 62.1661 49.0698 61.6692 48.709 61.3283C48.3482 60.9873 48.0175 60.831 47.7684 60.8396ZM54.3309 60.8396C54.1057 60.8474 53.809 61.0113 53.493 61.3544C53.177 61.6974 52.8663 62.1893 52.6068 62.688C52.3592 63.1637 52.1609 63.6348 52.0173 64.0041H57.0177C56.8395 63.627 56.5994 63.1517 56.3067 62.6734C55.9963 62.1661 55.6323 61.6692 55.2715 61.3283C54.9107 60.9873 54.58 60.831 54.3309 60.8396Z" fill="white"/>
<defs>
<filter id="filter0_dd_375_1324" x="0" y="0" width="87" height="97" filterUnits="userSpaceOnUse" color-interpolation-filters="sRGB">
<feFlood flood-opacity="0" result="BackgroundImageFix"/>
<feColorMatrix in="SourceAlpha" type="matrix" values="0 0 0 0 0 0 0 0 0 0 0 0 0 0 0 0 0 0 127 0" result="hardAlpha"/>
<feOffset dy="4"/>
<feGaussianBlur stdDeviation="3"/>
<feComposite in2="hardAlpha" operator="out"/>
<feColorMatrix type="matrix" values="0 0 0 0 0.576471 0 0 0 0 0.211765 0 0 0 0 1 0 0 0 0.05 0"/>
<feBlend mode="normal" in2="BackgroundImageFix" result="effect1_dropShadow_375_1324"/>
<feColorMatrix in="SourceAlpha" type="matrix" values="0 0 0 0 0 0 0 0 0 0 0 0 0 0 0 0 0 0 127 0" result="hardAlpha"/>
<feOffset dy="-6"/>
<feGaussianBlur stdDeviation="3"/>
<feComposite in2="hardAlpha" operator="out"/>
<feColorMatrix type="matrix" values="0 0 0 0 0.576471 0 0 0 0 0.211765 0 0 0 0 1 0 0 0 0.05 0"/>
<feBlend mode="normal" in2="effect1_dropShadow_375_1324" result="effect2_dropShadow_375_1324"/>
<feBlend mode="normal" in="SourceGraphic" in2="effect2_dropShadow_375_1324" result="shape"/>
</filter>
<linearGradient id="paint0_linear_375_1324" x1="43.5" y1="12" x2="43.5" y2="87" gradientUnits="userSpaceOnUse">
<stop stop-color="#0FC502" stop-opacity="0.7"/>
<stop offset="1" stop-color="#78A800" stop-opacity="0.6"/>
</linearGradient>
</defs>
</svg>
