<svg width="87" height="97" viewBox="0 0 87 97" fill="none" xmlns="http://www.w3.org/2000/svg">
<g filter="url(#filter0_dd_375_1327)">
<circle cx="43.5" cy="49.5" r="37.5" fill="url(#paint0_linear_375_1327)" shape-rendering="crispEdges"/>
</g>
<path d="M42.9974 37.6875C42.1135 37.6875 41.2658 38.043 40.6408 38.676C40.0158 39.3089 39.6647 40.1673 39.6647 41.0624C39.6647 41.9575 40.0158 42.8159 40.6408 43.4489C41.2658 44.0818 42.1135 44.4374 42.9974 44.4374C43.8813 44.4374 44.729 44.0818 45.354 43.4489C45.9791 42.8159 46.3302 41.9575 46.3302 41.0624C46.3302 40.1673 45.9791 39.3089 45.354 38.676C44.729 38.043 43.8813 37.6875 42.9974 37.6875ZM37.9983 41.0624C37.9983 39.7198 38.525 38.4321 39.4625 37.4827C40.4001 36.5334 41.6716 36 42.9974 36C44.3233 36 45.5948 36.5334 46.5324 37.4827C47.4699 38.4321 47.9966 39.7198 47.9966 41.0624C47.9966 42.4051 47.4699 43.6927 46.5324 44.6421C45.5948 45.5915 44.3233 46.1248 42.9974 46.1248C41.6716 46.1248 40.4001 45.5915 39.4625 44.6421C38.525 43.6927 37.9983 42.4051 37.9983 41.0624ZM34.7539 49.493C34.6972 49.7675 34.6689 50.051 34.6689 50.3435V51.2632L30.2847 52.4528C30.0712 52.5106 29.8892 52.6519 29.7786 52.8455C29.668 53.0392 29.6378 53.2694 29.6948 53.4856L30.7729 57.5608C31.0893 58.7543 31.8257 59.7894 32.8436 60.4711C33.8614 61.1527 35.0903 61.4339 36.2986 61.2614C36.6819 61.7846 37.1235 62.2638 37.6134 62.684L37.3284 62.7684C36.4829 62.9981 35.6009 63.0568 34.7329 62.9413C33.8649 62.8258 33.0279 62.5382 32.2697 62.095C31.5114 61.6519 30.8468 61.0618 30.3138 60.3585C29.7808 59.6553 29.3898 58.8525 29.1632 57.9962L28.0851 53.9209C28.0002 53.5998 27.9785 53.265 28.0214 52.9354C28.0643 52.6058 28.1709 52.288 28.3351 52.0002C28.4993 51.7123 28.7178 51.46 28.9783 51.2577C29.2387 51.0554 29.536 50.907 29.8531 50.8211L34.7539 49.493ZM51.3326 51.2632V50.3435C51.3315 50.051 51.3037 49.7675 51.2493 49.493L56.1484 50.8228C56.7885 50.9967 57.3342 51.421 57.6654 52.0023C57.9967 52.5836 58.0864 53.2744 57.9148 53.9226L56.8367 57.9979C56.6035 58.8785 56.1967 59.7021 55.6407 60.4191C55.0846 61.1361 54.3909 61.7316 53.6014 62.1696C52.8119 62.6077 51.9429 62.8793 51.0469 62.968C50.1509 63.0567 49.2465 62.9606 48.3882 62.6857C48.8803 62.2627 49.3185 61.7885 49.7029 61.2631C50.9112 61.435 52.1399 61.1535 53.1574 60.4715C54.1749 59.7896 54.911 58.7543 55.2269 57.5608L56.3067 53.4856C56.3637 53.2694 56.3336 53.0392 56.223 52.8455C56.1123 52.6519 55.9303 52.5106 55.7169 52.4528L51.3326 51.2632ZM51.3293 43.5936C51.3293 42.9223 51.5926 42.2785 52.0614 41.8038C52.5302 41.3291 53.1659 41.0624 53.8289 41.0624C54.4918 41.0624 55.1276 41.3291 55.5963 41.8038C56.0651 42.2785 56.3284 42.9223 56.3284 43.5936C56.3284 44.2649 56.0651 44.9088 55.5963 45.3835C55.1276 45.8582 54.4918 46.1248 53.8289 46.1248C53.1659 46.1248 52.5302 45.8582 52.0614 45.3835C51.5926 44.9088 51.3293 44.2649 51.3293 43.5936ZM53.8289 39.3749C52.724 39.3749 51.6644 39.8194 50.8831 40.6106C50.1018 41.4017 49.6629 42.4748 49.6629 43.5936C49.6629 44.7125 50.1018 45.7855 50.8831 46.5767C51.6644 47.3678 52.724 47.8123 53.8289 47.8123C54.9337 47.8123 55.9933 47.3678 56.7746 46.5767C57.5559 45.7855 57.9948 44.7125 57.9948 43.5936C57.9948 42.4748 57.5559 41.4017 56.7746 40.6106C55.9933 39.8194 54.9337 39.3749 53.8289 39.3749ZM32.166 41.0624C31.5031 41.0624 30.8673 41.3291 30.3986 41.8038C29.9298 42.2785 29.6665 42.9223 29.6665 43.5936C29.6665 44.2649 29.9298 44.9088 30.3986 45.3835C30.8673 45.8582 31.5031 46.1248 32.166 46.1248C32.829 46.1248 33.4647 45.8582 33.9335 45.3835C34.4022 44.9088 34.6656 44.2649 34.6656 43.5936C34.6656 42.9223 34.4022 42.2785 33.9335 41.8038C33.4647 41.3291 32.829 41.0624 32.166 41.0624ZM28.0001 43.5936C28.0001 42.4748 28.439 41.4017 29.2203 40.6106C30.0015 39.8194 31.0612 39.3749 32.166 39.3749C33.2709 39.3749 34.3305 39.8194 35.1118 40.6106C35.893 41.4017 36.332 42.4748 36.332 43.5936C36.332 44.7125 35.893 45.7855 35.1118 46.5767C34.3305 47.3678 33.2709 47.8123 32.166 47.8123C31.0612 47.8123 30.0015 47.3678 29.2203 46.5767C28.439 45.7855 28.0001 44.7125 28.0001 43.5936ZM38.8315 47.8123C38.1686 47.8123 37.5328 48.079 37.0641 48.5537C36.5953 49.0284 36.332 49.6722 36.332 50.3435V56.2497C36.332 58.0398 37.0342 59.7567 38.2842 61.0225C39.5343 62.2884 41.2296 62.9995 42.9974 62.9995C44.7652 62.9995 46.4606 62.2884 47.7107 61.0225C48.9607 59.7567 49.6629 58.0398 49.6629 56.2497V50.3435C49.6629 49.6722 49.3996 49.0284 48.9308 48.5537C48.4621 48.079 47.8263 47.8123 47.1634 47.8123H38.8315ZM37.9983 50.3435C37.9983 50.1197 38.0861 49.9051 38.2424 49.7469C38.3986 49.5887 38.6105 49.4998 38.8315 49.4998H47.1634C47.3843 49.4998 47.5963 49.5887 47.7525 49.7469C47.9088 49.9051 47.9966 50.1197 47.9966 50.3435V56.2497C47.9966 57.5923 47.4699 58.8799 46.5324 59.8293C45.5948 60.7787 44.3233 61.3121 42.9974 61.3121C41.6716 61.3121 40.4001 60.7787 39.4625 59.8293C38.525 58.8799 37.9983 57.5923 37.9983 56.2497V50.3435Z" fill="white"/>
<defs>
<filter id="filter0_dd_375_1327" x="0" y="0" width="87" height="97" filterUnits="userSpaceOnUse" color-interpolation-filters="sRGB">
<feFlood flood-opacity="0" result="BackgroundImageFix"/>
<feColorMatrix in="SourceAlpha" type="matrix" values="0 0 0 0 0 0 0 0 0 0 0 0 0 0 0 0 0 0 127 0" result="hardAlpha"/>
<feOffset dy="4"/>
<feGaussianBlur stdDeviation="3"/>
<feComposite in2="hardAlpha" operator="out"/>
<feColorMatrix type="matrix" values="0 0 0 0 0.576471 0 0 0 0 0.211765 0 0 0 0 1 0 0 0 0.05 0"/>
<feBlend mode="normal" in2="BackgroundImageFix" result="effect1_dropShadow_375_1327"/>
<feColorMatrix in="SourceAlpha" type="matrix" values="0 0 0 0 0 0 0 0 0 0 0 0 0 0 0 0 0 0 127 0" result="hardAlpha"/>
<feOffset dy="-6"/>
<feGaussianBlur stdDeviation="3"/>
<feComposite in2="hardAlpha" operator="out"/>
<feColorMatrix type="matrix" values="0 0 0 0 0.576471 0 0 0 0 0.211765 0 0 0 0 1 0 0 0 0.05 0"/>
<feBlend mode="normal" in2="effect1_dropShadow_375_1327" result="effect2_dropShadow_375_1327"/>
<feBlend mode="normal" in="SourceGraphic" in2="effect2_dropShadow_375_1327" result="shape"/>
</filter>
<linearGradient id="paint0_linear_375_1327" x1="43.5" y1="12" x2="43.5" y2="87" gradientUnits="userSpaceOnUse">
<stop stop-color="#0FC502"/>
<stop offset="1" stop-color="#78A800" stop-opacity="0.6"/>
</linearGradient>
</defs>
</svg>
